<?xml version="1.0" encoding="utf-8" standalone="no"?>
<!DOCTYPE svg PUBLIC "-//W3C//DTD SVG 1.1//EN"
  "http://www.w3.org/Graphics/SVG/1.1/DTD/svg11.dtd">
<svg xmlns:xlink="http://www.w3.org/1999/xlink" width="432pt" height="288pt" viewBox="0 0 432 288" xmlns="http://www.w3.org/2000/svg" version="1.1">
 <metadata>
  <rdf:RDF xmlns:dc="http://purl.org/dc/elements/1.1/" xmlns:cc="http://creativecommons.org/ns#" xmlns:rdf="http://www.w3.org/1999/02/22-rdf-syntax-ns#">
   <cc:Work>
    <dc:type rdf:resource="http://purl.org/dc/dcmitype/StillImage"/>
    <dc:date>2022-12-14T15:37:29.212299</dc:date>
    <dc:format>image/svg+xml</dc:format>
    <dc:creator>
     <cc:Agent>
      <dc:title>Matplotlib v3.5.1, https://matplotlib.org/</dc:title>
     </cc:Agent>
    </dc:creator>
   </cc:Work>
  </rdf:RDF>
 </metadata>
 <defs>
  <style type="text/css">*{stroke-linejoin: round; stroke-linecap: butt}</style>
 </defs>
 <g id="figure_1">
  <g id="patch_1">
   <path d="M 0 288 
L 432 288 
L 432 0 
L 0 0 
L 0 288 
z
" style="fill: none"/>
  </g>
  <g id="axes_1">
   <g id="patch_2">
    <path d="M 54 252 
L 388.8 252 
L 388.8 34.56 
L 54 34.56 
z
" style="fill: #ffffff"/>
   </g>
   <g id="patch_3">
    <path d="M 112.59 242.116364 
L 162.81 242.116364 
L 162.81 242.116364 
L 112.59 242.116364 
L 112.59 242.116364 
z
" clip-path="url(#pe065f73b44)" style="fill: #ffffff; stroke: #999999; stroke-width: 1.5; stroke-linejoin: miter"/>
   </g>
   <g id="patch_4">
    <path d="M 279.99 234.998736 
L 330.21 234.998736 
L 330.21 228.651706 
L 279.99 228.651706 
L 279.99 234.998736 
z
" clip-path="url(#pe065f73b44)" style="fill: #ffffff; stroke: #999999; stroke-width: 1.5; stroke-linejoin: miter"/>
   </g>
   <g id="matplotlib.axis_1">
    <g id="xtick_1">
     <g id="line2d_1">
      <defs>
       <path id="m32f41b3cd1" d="M 0 0 
L 0 3.5 
" style="stroke: #000000; stroke-width: 0.8"/>
      </defs>
      <g>
       <use xlink:href="#m32f41b3cd1" x="137.7" y="252" style="stroke: #000000; stroke-width: 0.8"/>
      </g>
     </g>
     <g id="text_1">
      <!-- Pre (P1) -->
      <g transform="translate(118.066406 266.598437)scale(0.1 -0.1)">
       <defs>
        <path id="DejaVuSans-50" d="M 1259 4147 
L 1259 2394 
L 2053 2394 
Q 2494 2394 2734 2622 
Q 2975 2850 2975 3272 
Q 2975 3691 2734 3919 
Q 2494 4147 2053 4147 
L 1259 4147 
z
M 628 4666 
L 2053 4666 
Q 2838 4666 3239 4311 
Q 3641 3956 3641 3272 
Q 3641 2581 3239 2228 
Q 2838 1875 2053 1875 
L 1259 1875 
L 1259 0 
L 628 0 
L 628 4666 
z
" transform="scale(0.015625)"/>
        <path id="DejaVuSans-72" d="M 2631 2963 
Q 2534 3019 2420 3045 
Q 2306 3072 2169 3072 
Q 1681 3072 1420 2755 
Q 1159 2438 1159 1844 
L 1159 0 
L 581 0 
L 581 3500 
L 1159 3500 
L 1159 2956 
Q 1341 3275 1631 3429 
Q 1922 3584 2338 3584 
Q 2397 3584 2469 3576 
Q 2541 3569 2628 3553 
L 2631 2963 
z
" transform="scale(0.015625)"/>
        <path id="DejaVuSans-65" d="M 3597 1894 
L 3597 1613 
L 953 1613 
Q 991 1019 1311 708 
Q 1631 397 2203 397 
Q 2534 397 2845 478 
Q 3156 559 3463 722 
L 3463 178 
Q 3153 47 2828 -22 
Q 2503 -91 2169 -91 
Q 1331 -91 842 396 
Q 353 884 353 1716 
Q 353 2575 817 3079 
Q 1281 3584 2069 3584 
Q 2775 3584 3186 3129 
Q 3597 2675 3597 1894 
z
M 3022 2063 
Q 3016 2534 2758 2815 
Q 2500 3097 2075 3097 
Q 1594 3097 1305 2825 
Q 1016 2553 972 2059 
L 3022 2063 
z
" transform="scale(0.015625)"/>
        <path id="DejaVuSans-20" transform="scale(0.015625)"/>
        <path id="DejaVuSans-28" d="M 1984 4856 
Q 1566 4138 1362 3434 
Q 1159 2731 1159 2009 
Q 1159 1288 1364 580 
Q 1569 -128 1984 -844 
L 1484 -844 
Q 1016 -109 783 600 
Q 550 1309 550 2009 
Q 550 2706 781 3412 
Q 1013 4119 1484 4856 
L 1984 4856 
z
" transform="scale(0.015625)"/>
        <path id="DejaVuSans-31" d="M 794 531 
L 1825 531 
L 1825 4091 
L 703 3866 
L 703 4441 
L 1819 4666 
L 2450 4666 
L 2450 531 
L 3481 531 
L 3481 0 
L 794 0 
L 794 531 
z
" transform="scale(0.015625)"/>
        <path id="DejaVuSans-29" d="M 513 4856 
L 1013 4856 
Q 1481 4119 1714 3412 
Q 1947 2706 1947 2009 
Q 1947 1309 1714 600 
Q 1481 -109 1013 -844 
L 513 -844 
Q 928 -128 1133 580 
Q 1338 1288 1338 2009 
Q 1338 2731 1133 3434 
Q 928 4138 513 4856 
z
" transform="scale(0.015625)"/>
       </defs>
       <use xlink:href="#DejaVuSans-50"/>
       <use xlink:href="#DejaVuSans-72" x="58.552734"/>
       <use xlink:href="#DejaVuSans-65" x="97.416016"/>
       <use xlink:href="#DejaVuSans-20" x="158.939453"/>
       <use xlink:href="#DejaVuSans-28" x="190.726562"/>
       <use xlink:href="#DejaVuSans-50" x="229.740234"/>
       <use xlink:href="#DejaVuSans-31" x="290.042969"/>
       <use xlink:href="#DejaVuSans-29" x="353.666016"/>
      </g>
     </g>
    </g>
    <g id="xtick_2">
     <g id="line2d_2">
      <g>
       <use xlink:href="#m32f41b3cd1" x="305.1" y="252" style="stroke: #000000; stroke-width: 0.8"/>
      </g>
     </g>
     <g id="text_2">
      <!-- Post (P2.b) -->
      <g transform="translate(278.192188 266.598437)scale(0.1 -0.1)">
       <defs>
        <path id="DejaVuSans-6f" d="M 1959 3097 
Q 1497 3097 1228 2736 
Q 959 2375 959 1747 
Q 959 1119 1226 758 
Q 1494 397 1959 397 
Q 2419 397 2687 759 
Q 2956 1122 2956 1747 
Q 2956 2369 2687 2733 
Q 2419 3097 1959 3097 
z
M 1959 3584 
Q 2709 3584 3137 3096 
Q 3566 2609 3566 1747 
Q 3566 888 3137 398 
Q 2709 -91 1959 -91 
Q 1206 -91 779 398 
Q 353 888 353 1747 
Q 353 2609 779 3096 
Q 1206 3584 1959 3584 
z
" transform="scale(0.015625)"/>
        <path id="DejaVuSans-73" d="M 2834 3397 
L 2834 2853 
Q 2591 2978 2328 3040 
Q 2066 3103 1784 3103 
Q 1356 3103 1142 2972 
Q 928 2841 928 2578 
Q 928 2378 1081 2264 
Q 1234 2150 1697 2047 
L 1894 2003 
Q 2506 1872 2764 1633 
Q 3022 1394 3022 966 
Q 3022 478 2636 193 
Q 2250 -91 1575 -91 
Q 1294 -91 989 -36 
Q 684 19 347 128 
L 347 722 
Q 666 556 975 473 
Q 1284 391 1588 391 
Q 1994 391 2212 530 
Q 2431 669 2431 922 
Q 2431 1156 2273 1281 
Q 2116 1406 1581 1522 
L 1381 1569 
Q 847 1681 609 1914 
Q 372 2147 372 2553 
Q 372 3047 722 3315 
Q 1072 3584 1716 3584 
Q 2034 3584 2315 3537 
Q 2597 3491 2834 3397 
z
" transform="scale(0.015625)"/>
        <path id="DejaVuSans-74" d="M 1172 4494 
L 1172 3500 
L 2356 3500 
L 2356 3053 
L 1172 3053 
L 1172 1153 
Q 1172 725 1289 603 
Q 1406 481 1766 481 
L 2356 481 
L 2356 0 
L 1766 0 
Q 1100 0 847 248 
Q 594 497 594 1153 
L 594 3053 
L 172 3053 
L 172 3500 
L 594 3500 
L 594 4494 
L 1172 4494 
z
" transform="scale(0.015625)"/>
        <path id="DejaVuSans-32" d="M 1228 531 
L 3431 531 
L 3431 0 
L 469 0 
L 469 531 
Q 828 903 1448 1529 
Q 2069 2156 2228 2338 
Q 2531 2678 2651 2914 
Q 2772 3150 2772 3378 
Q 2772 3750 2511 3984 
Q 2250 4219 1831 4219 
Q 1534 4219 1204 4116 
Q 875 4013 500 3803 
L 500 4441 
Q 881 4594 1212 4672 
Q 1544 4750 1819 4750 
Q 2544 4750 2975 4387 
Q 3406 4025 3406 3419 
Q 3406 3131 3298 2873 
Q 3191 2616 2906 2266 
Q 2828 2175 2409 1742 
Q 1991 1309 1228 531 
z
" transform="scale(0.015625)"/>
        <path id="DejaVuSans-2e" d="M 684 794 
L 1344 794 
L 1344 0 
L 684 0 
L 684 794 
z
" transform="scale(0.015625)"/>
        <path id="DejaVuSans-62" d="M 3116 1747 
Q 3116 2381 2855 2742 
Q 2594 3103 2138 3103 
Q 1681 3103 1420 2742 
Q 1159 2381 1159 1747 
Q 1159 1113 1420 752 
Q 1681 391 2138 391 
Q 2594 391 2855 752 
Q 3116 1113 3116 1747 
z
M 1159 2969 
Q 1341 3281 1617 3432 
Q 1894 3584 2278 3584 
Q 2916 3584 3314 3078 
Q 3713 2572 3713 1747 
Q 3713 922 3314 415 
Q 2916 -91 2278 -91 
Q 1894 -91 1617 61 
Q 1341 213 1159 525 
L 1159 0 
L 581 0 
L 581 4863 
L 1159 4863 
L 1159 2969 
z
" transform="scale(0.015625)"/>
       </defs>
       <use xlink:href="#DejaVuSans-50"/>
       <use xlink:href="#DejaVuSans-6f" x="56.677734"/>
       <use xlink:href="#DejaVuSans-73" x="117.859375"/>
       <use xlink:href="#DejaVuSans-74" x="169.958984"/>
       <use xlink:href="#DejaVuSans-20" x="209.167969"/>
       <use xlink:href="#DejaVuSans-28" x="240.955078"/>
       <use xlink:href="#DejaVuSans-50" x="279.96875"/>
       <use xlink:href="#DejaVuSans-32" x="340.271484"/>
       <use xlink:href="#DejaVuSans-2e" x="403.894531"/>
       <use xlink:href="#DejaVuSans-62" x="435.681641"/>
       <use xlink:href="#DejaVuSans-29" x="499.158203"/>
      </g>
     </g>
    </g>
    <g id="text_3">
     <!-- Project name -->
     <g transform="translate(188.526563 280.276563)scale(0.1 -0.1)">
      <defs>
       <path id="DejaVuSans-6a" d="M 603 3500 
L 1178 3500 
L 1178 -63 
Q 1178 -731 923 -1031 
Q 669 -1331 103 -1331 
L -116 -1331 
L -116 -844 
L 38 -844 
Q 366 -844 484 -692 
Q 603 -541 603 -63 
L 603 3500 
z
M 603 4863 
L 1178 4863 
L 1178 4134 
L 603 4134 
L 603 4863 
z
" transform="scale(0.015625)"/>
       <path id="DejaVuSans-63" d="M 3122 3366 
L 3122 2828 
Q 2878 2963 2633 3030 
Q 2388 3097 2138 3097 
Q 1578 3097 1268 2742 
Q 959 2388 959 1747 
Q 959 1106 1268 751 
Q 1578 397 2138 397 
Q 2388 397 2633 464 
Q 2878 531 3122 666 
L 3122 134 
Q 2881 22 2623 -34 
Q 2366 -91 2075 -91 
Q 1284 -91 818 406 
Q 353 903 353 1747 
Q 353 2603 823 3093 
Q 1294 3584 2113 3584 
Q 2378 3584 2631 3529 
Q 2884 3475 3122 3366 
z
" transform="scale(0.015625)"/>
       <path id="DejaVuSans-6e" d="M 3513 2113 
L 3513 0 
L 2938 0 
L 2938 2094 
Q 2938 2591 2744 2837 
Q 2550 3084 2163 3084 
Q 1697 3084 1428 2787 
Q 1159 2491 1159 1978 
L 1159 0 
L 581 0 
L 581 3500 
L 1159 3500 
L 1159 2956 
Q 1366 3272 1645 3428 
Q 1925 3584 2291 3584 
Q 2894 3584 3203 3211 
Q 3513 2838 3513 2113 
z
" transform="scale(0.015625)"/>
       <path id="DejaVuSans-61" d="M 2194 1759 
Q 1497 1759 1228 1600 
Q 959 1441 959 1056 
Q 959 750 1161 570 
Q 1363 391 1709 391 
Q 2188 391 2477 730 
Q 2766 1069 2766 1631 
L 2766 1759 
L 2194 1759 
z
M 3341 1997 
L 3341 0 
L 2766 0 
L 2766 531 
Q 2569 213 2275 61 
Q 1981 -91 1556 -91 
Q 1019 -91 701 211 
Q 384 513 384 1019 
Q 384 1609 779 1909 
Q 1175 2209 1959 2209 
L 2766 2209 
L 2766 2266 
Q 2766 2663 2505 2880 
Q 2244 3097 1772 3097 
Q 1472 3097 1187 3025 
Q 903 2953 641 2809 
L 641 3341 
Q 956 3463 1253 3523 
Q 1550 3584 1831 3584 
Q 2591 3584 2966 3190 
Q 3341 2797 3341 1997 
z
" transform="scale(0.015625)"/>
       <path id="DejaVuSans-6d" d="M 3328 2828 
Q 3544 3216 3844 3400 
Q 4144 3584 4550 3584 
Q 5097 3584 5394 3201 
Q 5691 2819 5691 2113 
L 5691 0 
L 5113 0 
L 5113 2094 
Q 5113 2597 4934 2840 
Q 4756 3084 4391 3084 
Q 3944 3084 3684 2787 
Q 3425 2491 3425 1978 
L 3425 0 
L 2847 0 
L 2847 2094 
Q 2847 2600 2669 2842 
Q 2491 3084 2119 3084 
Q 1678 3084 1418 2786 
Q 1159 2488 1159 1978 
L 1159 0 
L 581 0 
L 581 3500 
L 1159 3500 
L 1159 2956 
Q 1356 3278 1631 3431 
Q 1906 3584 2284 3584 
Q 2666 3584 2933 3390 
Q 3200 3197 3328 2828 
z
" transform="scale(0.015625)"/>
      </defs>
      <use xlink:href="#DejaVuSans-50"/>
      <use xlink:href="#DejaVuSans-72" x="58.552734"/>
      <use xlink:href="#DejaVuSans-6f" x="97.416016"/>
      <use xlink:href="#DejaVuSans-6a" x="158.597656"/>
      <use xlink:href="#DejaVuSans-65" x="186.380859"/>
      <use xlink:href="#DejaVuSans-63" x="247.904297"/>
      <use xlink:href="#DejaVuSans-74" x="302.884766"/>
      <use xlink:href="#DejaVuSans-20" x="342.09375"/>
      <use xlink:href="#DejaVuSans-6e" x="373.880859"/>
      <use xlink:href="#DejaVuSans-61" x="437.259766"/>
      <use xlink:href="#DejaVuSans-6d" x="498.539062"/>
      <use xlink:href="#DejaVuSans-65" x="595.951172"/>
     </g>
    </g>
   </g>
   <g id="matplotlib.axis_2">
    <g id="ytick_1">
     <g id="line2d_3">
      <defs>
       <path id="m89b5215701" d="M 0 0 
L -3.5 0 
" style="stroke: #000000; stroke-width: 0.8"/>
      </defs>
      <g>
       <use xlink:href="#m89b5215701" x="54" y="242.116364" style="stroke: #000000; stroke-width: 0.8"/>
      </g>
     </g>
     <g id="text_4">
      <!-- 0.00 -->
      <g transform="translate(24.734375 245.915582)scale(0.1 -0.1)">
       <defs>
        <path id="DejaVuSans-30" d="M 2034 4250 
Q 1547 4250 1301 3770 
Q 1056 3291 1056 2328 
Q 1056 1369 1301 889 
Q 1547 409 2034 409 
Q 2525 409 2770 889 
Q 3016 1369 3016 2328 
Q 3016 3291 2770 3770 
Q 2525 4250 2034 4250 
z
M 2034 4750 
Q 2819 4750 3233 4129 
Q 3647 3509 3647 2328 
Q 3647 1150 3233 529 
Q 2819 -91 2034 -91 
Q 1250 -91 836 529 
Q 422 1150 422 2328 
Q 422 3509 836 4129 
Q 1250 4750 2034 4750 
z
" transform="scale(0.015625)"/>
       </defs>
       <use xlink:href="#DejaVuSans-30"/>
       <use xlink:href="#DejaVuSans-2e" x="63.623047"/>
       <use xlink:href="#DejaVuSans-30" x="95.410156"/>
       <use xlink:href="#DejaVuSans-30" x="159.033203"/>
      </g>
     </g>
    </g>
    <g id="ytick_2">
     <g id="line2d_4">
      <g>
       <use xlink:href="#m89b5215701" x="54" y="200.746286" style="stroke: #000000; stroke-width: 0.8"/>
      </g>
     </g>
     <g id="text_5">
      <!-- 0.01 -->
      <g transform="translate(24.734375 204.545504)scale(0.1 -0.1)">
       <use xlink:href="#DejaVuSans-30"/>
       <use xlink:href="#DejaVuSans-2e" x="63.623047"/>
       <use xlink:href="#DejaVuSans-30" x="95.410156"/>
       <use xlink:href="#DejaVuSans-31" x="159.033203"/>
      </g>
     </g>
    </g>
    <g id="ytick_3">
     <g id="line2d_5">
      <g>
       <use xlink:href="#m89b5215701" x="54" y="159.376208" style="stroke: #000000; stroke-width: 0.8"/>
      </g>
     </g>
     <g id="text_6">
      <!-- 0.02 -->
      <g transform="translate(24.734375 163.175427)scale(0.1 -0.1)">
       <use xlink:href="#DejaVuSans-30"/>
       <use xlink:href="#DejaVuSans-2e" x="63.623047"/>
       <use xlink:href="#DejaVuSans-30" x="95.410156"/>
       <use xlink:href="#DejaVuSans-32" x="159.033203"/>
      </g>
     </g>
    </g>
    <g id="ytick_4">
     <g id="line2d_6">
      <g>
       <use xlink:href="#m89b5215701" x="54" y="118.00613" style="stroke: #000000; stroke-width: 0.8"/>
      </g>
     </g>
     <g id="text_7">
      <!-- 0.03 -->
      <g transform="translate(24.734375 121.805349)scale(0.1 -0.1)">
       <defs>
        <path id="DejaVuSans-33" d="M 2597 2516 
Q 3050 2419 3304 2112 
Q 3559 1806 3559 1356 
Q 3559 666 3084 287 
Q 2609 -91 1734 -91 
Q 1441 -91 1130 -33 
Q 819 25 488 141 
L 488 750 
Q 750 597 1062 519 
Q 1375 441 1716 441 
Q 2309 441 2620 675 
Q 2931 909 2931 1356 
Q 2931 1769 2642 2001 
Q 2353 2234 1838 2234 
L 1294 2234 
L 1294 2753 
L 1863 2753 
Q 2328 2753 2575 2939 
Q 2822 3125 2822 3475 
Q 2822 3834 2567 4026 
Q 2313 4219 1838 4219 
Q 1578 4219 1281 4162 
Q 984 4106 628 3988 
L 628 4550 
Q 988 4650 1302 4700 
Q 1616 4750 1894 4750 
Q 2613 4750 3031 4423 
Q 3450 4097 3450 3541 
Q 3450 3153 3228 2886 
Q 3006 2619 2597 2516 
z
" transform="scale(0.015625)"/>
       </defs>
       <use xlink:href="#DejaVuSans-30"/>
       <use xlink:href="#DejaVuSans-2e" x="63.623047"/>
       <use xlink:href="#DejaVuSans-30" x="95.410156"/>
       <use xlink:href="#DejaVuSans-33" x="159.033203"/>
      </g>
     </g>
    </g>
    <g id="ytick_5">
     <g id="line2d_7">
      <g>
       <use xlink:href="#m89b5215701" x="54" y="76.636052" style="stroke: #000000; stroke-width: 0.8"/>
      </g>
     </g>
     <g id="text_8">
      <!-- 0.04 -->
      <g transform="translate(24.734375 80.435271)scale(0.1 -0.1)">
       <defs>
        <path id="DejaVuSans-34" d="M 2419 4116 
L 825 1625 
L 2419 1625 
L 2419 4116 
z
M 2253 4666 
L 3047 4666 
L 3047 1625 
L 3713 1625 
L 3713 1100 
L 3047 1100 
L 3047 0 
L 2419 0 
L 2419 1100 
L 313 1100 
L 313 1709 
L 2253 4666 
z
" transform="scale(0.015625)"/>
       </defs>
       <use xlink:href="#DejaVuSans-30"/>
       <use xlink:href="#DejaVuSans-2e" x="63.623047"/>
       <use xlink:href="#DejaVuSans-30" x="95.410156"/>
       <use xlink:href="#DejaVuSans-34" x="159.033203"/>
      </g>
     </g>
    </g>
    <g id="ytick_6">
     <g id="line2d_8">
      <g>
       <use xlink:href="#m89b5215701" x="54" y="35.265974" style="stroke: #000000; stroke-width: 0.8"/>
      </g>
     </g>
     <g id="text_9">
      <!-- 0.05 -->
      <g transform="translate(24.734375 39.065193)scale(0.1 -0.1)">
       <defs>
        <path id="DejaVuSans-35" d="M 691 4666 
L 3169 4666 
L 3169 4134 
L 1269 4134 
L 1269 2991 
Q 1406 3038 1543 3061 
Q 1681 3084 1819 3084 
Q 2600 3084 3056 2656 
Q 3513 2228 3513 1497 
Q 3513 744 3044 326 
Q 2575 -91 1722 -91 
Q 1428 -91 1123 -41 
Q 819 9 494 109 
L 494 744 
Q 775 591 1075 516 
Q 1375 441 1709 441 
Q 2250 441 2565 725 
Q 2881 1009 2881 1497 
Q 2881 1984 2565 2268 
Q 2250 2553 1709 2553 
Q 1456 2553 1204 2497 
Q 953 2441 691 2322 
L 691 4666 
z
" transform="scale(0.015625)"/>
       </defs>
       <use xlink:href="#DejaVuSans-30"/>
       <use xlink:href="#DejaVuSans-2e" x="63.623047"/>
       <use xlink:href="#DejaVuSans-30" x="95.410156"/>
       <use xlink:href="#DejaVuSans-35" x="159.033203"/>
      </g>
     </g>
    </g>
    <g id="text_10">
     <!-- block comments -->
     <g transform="translate(18.654687 184.495625)rotate(-90)scale(0.1 -0.1)">
      <defs>
       <path id="DejaVuSans-6c" d="M 603 4863 
L 1178 4863 
L 1178 0 
L 603 0 
L 603 4863 
z
" transform="scale(0.015625)"/>
       <path id="DejaVuSans-6b" d="M 581 4863 
L 1159 4863 
L 1159 1991 
L 2875 3500 
L 3609 3500 
L 1753 1863 
L 3688 0 
L 2938 0 
L 1159 1709 
L 1159 0 
L 581 0 
L 581 4863 
z
" transform="scale(0.015625)"/>
      </defs>
      <use xlink:href="#DejaVuSans-62"/>
      <use xlink:href="#DejaVuSans-6c" x="63.476562"/>
      <use xlink:href="#DejaVuSans-6f" x="91.259766"/>
      <use xlink:href="#DejaVuSans-63" x="152.441406"/>
      <use xlink:href="#DejaVuSans-6b" x="207.421875"/>
      <use xlink:href="#DejaVuSans-20" x="265.332031"/>
      <use xlink:href="#DejaVuSans-63" x="297.119141"/>
      <use xlink:href="#DejaVuSans-6f" x="352.099609"/>
      <use xlink:href="#DejaVuSans-6d" x="413.28125"/>
      <use xlink:href="#DejaVuSans-6d" x="510.693359"/>
      <use xlink:href="#DejaVuSans-65" x="608.105469"/>
      <use xlink:href="#DejaVuSans-6e" x="669.628906"/>
      <use xlink:href="#DejaVuSans-74" x="733.007812"/>
      <use xlink:href="#DejaVuSans-73" x="772.216797"/>
     </g>
    </g>
   </g>
   <g id="line2d_9">
    <path d="M 137.7 242.116364 
L 137.7 242.116364 
" clip-path="url(#pe065f73b44)" style="fill: none; stroke: #999999; stroke-width: 1.5; stroke-linecap: square"/>
   </g>
   <g id="line2d_10">
    <path d="M 137.7 242.116364 
L 137.7 242.116364 
" clip-path="url(#pe065f73b44)" style="fill: none; stroke: #999999; stroke-width: 1.5; stroke-linecap: square"/>
   </g>
   <g id="line2d_11">
    <path d="M 125.145 242.116364 
L 150.255 242.116364 
" clip-path="url(#pe065f73b44)" style="fill: none; stroke: #999999; stroke-width: 1.5; stroke-linecap: square"/>
   </g>
   <g id="line2d_12">
    <path d="M 125.145 242.116364 
L 150.255 242.116364 
" clip-path="url(#pe065f73b44)" style="fill: none; stroke: #999999; stroke-width: 1.5; stroke-linecap: square"/>
   </g>
   <g id="line2d_13">
    <defs>
     <path id="m5bb409cc3e" d="M -0 3.535534 
L 2.12132 0 
L -0 -3.535534 
L -2.12132 -0 
z
" style="stroke: #999999; stroke-linejoin: miter"/>
    </defs>
    <g clip-path="url(#pe065f73b44)">
     <use xlink:href="#m5bb409cc3e" x="137.7" y="216.890706" style="fill: #999999; stroke: #999999; stroke-linejoin: miter"/>
     <use xlink:href="#m5bb409cc3e" x="137.7" y="224.950356" style="fill: #999999; stroke: #999999; stroke-linejoin: miter"/>
     <use xlink:href="#m5bb409cc3e" x="137.7" y="223.626943" style="fill: #999999; stroke: #999999; stroke-linejoin: miter"/>
     <use xlink:href="#m5bb409cc3e" x="137.7" y="234.648841" style="fill: #999999; stroke: #999999; stroke-linejoin: miter"/>
     <use xlink:href="#m5bb409cc3e" x="137.7" y="224.842845" style="fill: #999999; stroke: #999999; stroke-linejoin: miter"/>
     <use xlink:href="#m5bb409cc3e" x="137.7" y="235.580806" style="fill: #999999; stroke: #999999; stroke-linejoin: miter"/>
     <use xlink:href="#m5bb409cc3e" x="137.7" y="236.370519" style="fill: #999999; stroke: #999999; stroke-linejoin: miter"/>
     <use xlink:href="#m5bb409cc3e" x="137.7" y="234.702371" style="fill: #999999; stroke: #999999; stroke-linejoin: miter"/>
     <use xlink:href="#m5bb409cc3e" x="137.7" y="60.969277" style="fill: #999999; stroke: #999999; stroke-linejoin: miter"/>
     <use xlink:href="#m5bb409cc3e" x="137.7" y="234.702371" style="fill: #999999; stroke: #999999; stroke-linejoin: miter"/>
     <use xlink:href="#m5bb409cc3e" x="137.7" y="235.008103" style="fill: #999999; stroke: #999999; stroke-linejoin: miter"/>
     <use xlink:href="#m5bb409cc3e" x="137.7" y="218.557094" style="fill: #999999; stroke: #999999; stroke-linejoin: miter"/>
     <use xlink:href="#m5bb409cc3e" x="137.7" y="236.206353" style="fill: #999999; stroke: #999999; stroke-linejoin: miter"/>
     <use xlink:href="#m5bb409cc3e" x="137.7" y="233.842348" style="fill: #999999; stroke: #999999; stroke-linejoin: miter"/>
     <use xlink:href="#m5bb409cc3e" x="137.7" y="233.673491" style="fill: #999999; stroke: #999999; stroke-linejoin: miter"/>
     <use xlink:href="#m5bb409cc3e" x="137.7" y="234.883833" style="fill: #999999; stroke: #999999; stroke-linejoin: miter"/>
     <use xlink:href="#m5bb409cc3e" x="137.7" y="202.865815" style="fill: #999999; stroke: #999999; stroke-linejoin: miter"/>
     <use xlink:href="#m5bb409cc3e" x="137.7" y="83.731686" style="fill: #999999; stroke: #999999; stroke-linejoin: miter"/>
     <use xlink:href="#m5bb409cc3e" x="137.7" y="235.422176" style="fill: #999999; stroke: #999999; stroke-linejoin: miter"/>
     <use xlink:href="#m5bb409cc3e" x="137.7" y="228.530131" style="fill: #999999; stroke: #999999; stroke-linejoin: miter"/>
     <use xlink:href="#m5bb409cc3e" x="137.7" y="238.275131" style="fill: #999999; stroke: #999999; stroke-linejoin: miter"/>
     <use xlink:href="#m5bb409cc3e" x="137.7" y="236.945104" style="fill: #999999; stroke: #999999; stroke-linejoin: miter"/>
     <use xlink:href="#m5bb409cc3e" x="137.7" y="235.44377" style="fill: #999999; stroke: #999999; stroke-linejoin: miter"/>
     <use xlink:href="#m5bb409cc3e" x="137.7" y="194.797647" style="fill: #999999; stroke: #999999; stroke-linejoin: miter"/>
     <use xlink:href="#m5bb409cc3e" x="137.7" y="233.775622" style="fill: #999999; stroke: #999999; stroke-linejoin: miter"/>
     <use xlink:href="#m5bb409cc3e" x="137.7" y="234.441025" style="fill: #999999; stroke: #999999; stroke-linejoin: miter"/>
     <use xlink:href="#m5bb409cc3e" x="137.7" y="236.111998" style="fill: #999999; stroke: #999999; stroke-linejoin: miter"/>
     <use xlink:href="#m5bb409cc3e" x="137.7" y="146.713668" style="fill: #999999; stroke: #999999; stroke-linejoin: miter"/>
     <use xlink:href="#m5bb409cc3e" x="137.7" y="235.454515" style="fill: #999999; stroke: #999999; stroke-linejoin: miter"/>
     <use xlink:href="#m5bb409cc3e" x="137.7" y="234.896455" style="fill: #999999; stroke: #999999; stroke-linejoin: miter"/>
     <use xlink:href="#m5bb409cc3e" x="137.7" y="208.550377" style="fill: #999999; stroke: #999999; stroke-linejoin: miter"/>
     <use xlink:href="#m5bb409cc3e" x="137.7" y="231.669374" style="fill: #999999; stroke: #999999; stroke-linejoin: miter"/>
     <use xlink:href="#m5bb409cc3e" x="137.7" y="235.601391" style="fill: #999999; stroke: #999999; stroke-linejoin: miter"/>
     <use xlink:href="#m5bb409cc3e" x="137.7" y="223.702382" style="fill: #999999; stroke: #999999; stroke-linejoin: miter"/>
     <use xlink:href="#m5bb409cc3e" x="137.7" y="233.161801" style="fill: #999999; stroke: #999999; stroke-linejoin: miter"/>
     <use xlink:href="#m5bb409cc3e" x="137.7" y="233.388499" style="fill: #999999; stroke: #999999; stroke-linejoin: miter"/>
     <use xlink:href="#m5bb409cc3e" x="137.7" y="233.858863" style="fill: #999999; stroke: #999999; stroke-linejoin: miter"/>
     <use xlink:href="#m5bb409cc3e" x="137.7" y="234.310689" style="fill: #999999; stroke: #999999; stroke-linejoin: miter"/>
     <use xlink:href="#m5bb409cc3e" x="137.7" y="44.443636" style="fill: #999999; stroke: #999999; stroke-linejoin: miter"/>
     <use xlink:href="#m5bb409cc3e" x="137.7" y="236.873008" style="fill: #999999; stroke: #999999; stroke-linejoin: miter"/>
     <use xlink:href="#m5bb409cc3e" x="137.7" y="231.616344" style="fill: #999999; stroke: #999999; stroke-linejoin: miter"/>
     <use xlink:href="#m5bb409cc3e" x="137.7" y="187.885924" style="fill: #999999; stroke: #999999; stroke-linejoin: miter"/>
     <use xlink:href="#m5bb409cc3e" x="137.7" y="230.719648" style="fill: #999999; stroke: #999999; stroke-linejoin: miter"/>
     <use xlink:href="#m5bb409cc3e" x="137.7" y="234.983592" style="fill: #999999; stroke: #999999; stroke-linejoin: miter"/>
     <use xlink:href="#m5bb409cc3e" x="137.7" y="218.521262" style="fill: #999999; stroke: #999999; stroke-linejoin: miter"/>
     <use xlink:href="#m5bb409cc3e" x="137.7" y="111.198396" style="fill: #999999; stroke: #999999; stroke-linejoin: miter"/>
     <use xlink:href="#m5bb409cc3e" x="137.7" y="212.775883" style="fill: #999999; stroke: #999999; stroke-linejoin: miter"/>
     <use xlink:href="#m5bb409cc3e" x="137.7" y="234.648841" style="fill: #999999; stroke: #999999; stroke-linejoin: miter"/>
    </g>
   </g>
   <g id="line2d_14">
    <path d="M 305.1 234.998736 
L 305.1 242.116364 
" clip-path="url(#pe065f73b44)" style="fill: none; stroke: #999999; stroke-width: 1.5; stroke-linecap: square"/>
   </g>
   <g id="line2d_15">
    <path d="M 305.1 228.651706 
L 305.1 220.169373 
" clip-path="url(#pe065f73b44)" style="fill: none; stroke: #999999; stroke-width: 1.5; stroke-linecap: square"/>
   </g>
   <g id="line2d_16">
    <path d="M 292.545 242.116364 
L 317.655 242.116364 
" clip-path="url(#pe065f73b44)" style="fill: none; stroke: #999999; stroke-width: 1.5; stroke-linecap: square"/>
   </g>
   <g id="line2d_17">
    <path d="M 292.545 220.169373 
L 317.655 220.169373 
" clip-path="url(#pe065f73b44)" style="fill: none; stroke: #999999; stroke-width: 1.5; stroke-linecap: square"/>
   </g>
   <g id="line2d_18">
    <g clip-path="url(#pe065f73b44)">
     <use xlink:href="#m5bb409cc3e" x="305.1" y="198.105642" style="fill: #999999; stroke: #999999; stroke-linejoin: miter"/>
     <use xlink:href="#m5bb409cc3e" x="305.1" y="210.046536" style="fill: #999999; stroke: #999999; stroke-linejoin: miter"/>
     <use xlink:href="#m5bb409cc3e" x="305.1" y="214.413186" style="fill: #999999; stroke: #999999; stroke-linejoin: miter"/>
     <use xlink:href="#m5bb409cc3e" x="305.1" y="208.753398" style="fill: #999999; stroke: #999999; stroke-linejoin: miter"/>
     <use xlink:href="#m5bb409cc3e" x="305.1" y="189.784041" style="fill: #999999; stroke: #999999; stroke-linejoin: miter"/>
     <use xlink:href="#m5bb409cc3e" x="305.1" y="200.328406" style="fill: #999999; stroke: #999999; stroke-linejoin: miter"/>
     <use xlink:href="#m5bb409cc3e" x="305.1" y="175.390432" style="fill: #999999; stroke: #999999; stroke-linejoin: miter"/>
     <use xlink:href="#m5bb409cc3e" x="305.1" y="193.689851" style="fill: #999999; stroke: #999999; stroke-linejoin: miter"/>
     <use xlink:href="#m5bb409cc3e" x="305.1" y="217.19463" style="fill: #999999; stroke: #999999; stroke-linejoin: miter"/>
     <use xlink:href="#m5bb409cc3e" x="305.1" y="167.976439" style="fill: #999999; stroke: #999999; stroke-linejoin: miter"/>
     <use xlink:href="#m5bb409cc3e" x="305.1" y="206.246354" style="fill: #999999; stroke: #999999; stroke-linejoin: miter"/>
     <use xlink:href="#m5bb409cc3e" x="305.1" y="203.234711" style="fill: #999999; stroke: #999999; stroke-linejoin: miter"/>
     <use xlink:href="#m5bb409cc3e" x="305.1" y="217.54008" style="fill: #999999; stroke: #999999; stroke-linejoin: miter"/>
     <use xlink:href="#m5bb409cc3e" x="305.1" y="197.246431" style="fill: #999999; stroke: #999999; stroke-linejoin: miter"/>
     <use xlink:href="#m5bb409cc3e" x="305.1" y="206.832715" style="fill: #999999; stroke: #999999; stroke-linejoin: miter"/>
     <use xlink:href="#m5bb409cc3e" x="305.1" y="215.252677" style="fill: #999999; stroke: #999999; stroke-linejoin: miter"/>
     <use xlink:href="#m5bb409cc3e" x="305.1" y="169.324438" style="fill: #999999; stroke: #999999; stroke-linejoin: miter"/>
     <use xlink:href="#m5bb409cc3e" x="305.1" y="209.282968" style="fill: #999999; stroke: #999999; stroke-linejoin: miter"/>
     <use xlink:href="#m5bb409cc3e" x="305.1" y="174.381979" style="fill: #999999; stroke: #999999; stroke-linejoin: miter"/>
     <use xlink:href="#m5bb409cc3e" x="305.1" y="203.606983" style="fill: #999999; stroke: #999999; stroke-linejoin: miter"/>
     <use xlink:href="#m5bb409cc3e" x="305.1" y="210.12919" style="fill: #999999; stroke: #999999; stroke-linejoin: miter"/>
     <use xlink:href="#m5bb409cc3e" x="305.1" y="211.185464" style="fill: #999999; stroke: #999999; stroke-linejoin: miter"/>
     <use xlink:href="#m5bb409cc3e" x="305.1" y="169.917275" style="fill: #999999; stroke: #999999; stroke-linejoin: miter"/>
     <use xlink:href="#m5bb409cc3e" x="305.1" y="175.747255" style="fill: #999999; stroke: #999999; stroke-linejoin: miter"/>
     <use xlink:href="#m5bb409cc3e" x="305.1" y="179.024742" style="fill: #999999; stroke: #999999; stroke-linejoin: miter"/>
    </g>
   </g>
   <g id="line2d_19">
    <path d="M 112.59 242.116364 
L 162.81 242.116364 
" clip-path="url(#pe065f73b44)" style="fill: none; stroke: #999999; stroke-width: 1.5; stroke-linecap: square"/>
   </g>
   <g id="line2d_20">
    <path d="M 279.99 231.419399 
L 330.21 231.419399 
" clip-path="url(#pe065f73b44)" style="fill: none; stroke: #999999; stroke-width: 1.5; stroke-linecap: square"/>
   </g>
   <g id="patch_5">
    <path d="M 54 252 
L 54 34.56 
" style="fill: none; stroke: #000000; stroke-width: 0.8; stroke-linejoin: miter; stroke-linecap: square"/>
   </g>
   <g id="patch_6">
    <path d="M 388.8 252 
L 388.8 34.56 
" style="fill: none; stroke: #000000; stroke-width: 0.8; stroke-linejoin: miter; stroke-linecap: square"/>
   </g>
   <g id="patch_7">
    <path d="M 54 252 
L 388.8 252 
" style="fill: none; stroke: #000000; stroke-width: 0.8; stroke-linejoin: miter; stroke-linecap: square"/>
   </g>
   <g id="patch_8">
    <path d="M 54 34.56 
L 388.8 34.56 
" style="fill: none; stroke: #000000; stroke-width: 0.8; stroke-linejoin: miter; stroke-linecap: square"/>
   </g>
   <g id="text_11">
    <!-- 0.0 -->
    <g transform="translate(181.77322 242.116364)scale(0.0694 -0.0694)">
     <defs>
      <path id="DejaVuSans-Bold-30" d="M 2944 2338 
Q 2944 3213 2780 3570 
Q 2616 3928 2228 3928 
Q 1841 3928 1675 3570 
Q 1509 3213 1509 2338 
Q 1509 1453 1675 1090 
Q 1841 728 2228 728 
Q 2613 728 2778 1090 
Q 2944 1453 2944 2338 
z
M 4147 2328 
Q 4147 1169 3647 539 
Q 3147 -91 2228 -91 
Q 1306 -91 806 539 
Q 306 1169 306 2328 
Q 306 3491 806 4120 
Q 1306 4750 2228 4750 
Q 3147 4750 3647 4120 
Q 4147 3491 4147 2328 
z
" transform="scale(0.015625)"/>
      <path id="DejaVuSans-Bold-2e" d="M 653 1209 
L 1778 1209 
L 1778 0 
L 653 0 
L 653 1209 
z
" transform="scale(0.015625)"/>
     </defs>
     <use xlink:href="#DejaVuSans-Bold-30"/>
     <use xlink:href="#DejaVuSans-Bold-2e" x="69.580078"/>
     <use xlink:href="#DejaVuSans-Bold-30" x="107.568359"/>
    </g>
   </g>
   <g id="text_12">
    <!-- 0.0 -->
    <g transform="translate(349.17322 242.116364)scale(0.0694 -0.0694)">
     <use xlink:href="#DejaVuSans-Bold-30"/>
     <use xlink:href="#DejaVuSans-Bold-2e" x="69.580078"/>
     <use xlink:href="#DejaVuSans-Bold-30" x="107.568359"/>
    </g>
   </g>
   <g id="text_13">
    <!-- block comments -->
    <g transform="translate(171.94125 28.56)scale(0.12 -0.12)">
     <use xlink:href="#DejaVuSans-62"/>
     <use xlink:href="#DejaVuSans-6c" x="63.476562"/>
     <use xlink:href="#DejaVuSans-6f" x="91.259766"/>
     <use xlink:href="#DejaVuSans-63" x="152.441406"/>
     <use xlink:href="#DejaVuSans-6b" x="207.421875"/>
     <use xlink:href="#DejaVuSans-20" x="265.332031"/>
     <use xlink:href="#DejaVuSans-63" x="297.119141"/>
     <use xlink:href="#DejaVuSans-6f" x="352.099609"/>
     <use xlink:href="#DejaVuSans-6d" x="413.28125"/>
     <use xlink:href="#DejaVuSans-6d" x="510.693359"/>
     <use xlink:href="#DejaVuSans-65" x="608.105469"/>
     <use xlink:href="#DejaVuSans-6e" x="669.628906"/>
     <use xlink:href="#DejaVuSans-74" x="733.007812"/>
     <use xlink:href="#DejaVuSans-73" x="772.216797"/>
    </g>
   </g>
  </g>
 </g>
 <defs>
  <clipPath id="pe065f73b44">
   <rect x="54" y="34.56" width="334.8" height="217.44"/>
  </clipPath>
 </defs>
</svg>
